<?xml version="1.0" encoding="UTF-8"?>
<svg id="ab2" xmlns="http://www.w3.org/2000/svg" viewBox="0 0 288.49 260.89">
  <defs>
    <style>
      .cls-1 {
        fill: #fff;
      }

      .cls-2 {
        fill: #f6a230;
      }

      .cls-3 {
        fill: #5966b1;
      }

      .cls-4 {
        fill: #fbcf41;
      }
    </style>
  </defs>
  <g id="Layer_8">
    <path class="cls-2" d="M254.41,101.88c-1.61-5.89-3.39-10.55-4.72-13.64-1.1-2.57-3.77-4.1-6.54-3.75l-17.93,2.24c-3.12-5.54-6.79-10.71-10.94-15.44l8.1-16.17c1.25-2.5.7-5.52-1.36-7.42-2.47-2.28-6.27-5.52-11.29-9-5.02-3.48-9.38-5.9-12.39-7.41-2.5-1.26-5.52-.72-7.42,1.33l-12.29,13.25c-5.86-2.21-11.99-3.83-18.3-4.8l-4.2-17.57c-.65-2.72-3.02-4.68-5.81-4.81-3.36-.16-8.35-.19-14.43.37-6.08.56-10.98,1.51-14.25,2.29-2.72.64-4.69,3-4.83,5.79l-.89,18.05c-5.91,2.07-11.52,4.73-16.78,7.89l-14.47-10.82c-2.24-1.67-5.31-1.66-7.54.02-2.69,2.03-6.54,5.2-10.85,9.52-4.31,4.33-7.47,8.19-9.49,10.88-1.68,2.24-1.68,5.31,0,7.54l10.87,14.45c-3.23,5.4-5.91,11.14-7.98,17.15l-18.03,1.02c-2.79.16-5.14,2.14-5.76,4.87-.75,3.28-1.66,8.18-2.19,14.27-.52,6.09-.45,11.07-.27,14.43.15,2.79,2.13,5.15,4.85,5.77l17.63,4.07c1.02,6.35,2.68,12.46,4.91,18.27l-13.15,12.38c-2.04,1.92-2.55,4.94-1.28,7.43,1.54,3,3.99,7.34,7.51,12.33,3.52,5,6.78,8.77,9.08,11.23,1.91,2.04,4.94,2.57,7.43,1.3l16.12-8.22c4.78,4.12,9.98,7.75,15.51,10.81l-2.11,17.96c-.33,2.78,1.22,5.43,3.8,6.51,3.1,1.31,7.77,3.05,13.68,4.62,5.91,1.56,10.83,2.36,14.17,2.76,2.78.33,5.43-1.2,6.53-3.78l7.05-16.65c3.19.04,6.41-.09,9.66-.39,3.11-.29,6.18-.73,9.18-1.32l9.93,15.11c1.54,2.34,4.43,3.37,7.1,2.54,3.22-1,7.92-2.66,13.44-5.26,5.53-2.6,9.81-5.16,12.62-7,2.34-1.53,3.39-4.42,2.57-7.09l-5.31-17.28c4.9-4.01,9.35-8.52,13.31-13.43l17.33,5.18c2.68.8,5.56-.27,7.07-2.62,1.82-2.83,4.35-7.13,6.91-12.68,2.56-5.55,4.19-10.26,5.16-13.48.81-2.68-.25-5.56-2.6-7.08l-15.17-9.81c1.15-6.12,1.69-12.42,1.55-18.86l16.6-7.18c2.57-1.11,4.08-3.78,3.73-6.55-.43-3.34-1.25-8.26-2.86-14.15ZM150.96,192.12c-33.41,3.1-63.01-21.47-66.12-54.88-3.1-33.41,21.47-63.01,54.88-66.12,33.41-3.1,63.01,21.47,66.12,54.88,3.1,33.41-21.47,63.01-54.88,66.12Z"/>
  </g>
  <g id="Layer_10">
    <path class="cls-1" d="M119.89,199.63c-1.4-11.44.08-14.58,4.44-18.93l40.5-40.44,29.62-29.57c4.36-4.35,7.57-4.58,19.65-5.12,11.07-.5,22.46-5.92,32.64-13.09,10.75-7.57,12.68-26.63,9.99-38.85-.52-2.38-3.61-3.37-5.3-1.68l-16.08,16.05c-1.78,1.78-4.48,2.48-8.52,2.94l-12.55-3.04c-1.91-1.9-4.63-4.37-5.64-7.5l-2.86-4.68c-.79-2.46,2.49-5.17,4.27-6.95l13.41-15.94c1.69-1.69.5-4.58-2.02-4.96-12.95-1.98-30.54,2.28-39.68,11.69-8.61,8.87-9.21,20.83-7.79,32.41,1.4,11.44,2.43,14.03-1.93,18.39l-29.62,29.57-40.5,40.44c-4.36,4.35-8.09,2.24-20.16,1.45-12.22-.79-24.63,1.95-33.53,10.57-9.44,9.14-12.21,25.72-9.51,37.94.52,2.38,3.61,3.37,5.3,1.68l15.88-12.57c1.78-1.78,4.48-2.48,7.1-1.84l9.77,2.52c3.34.81,6.05,3.27,7.06,6.41l-1.05,8.2c.79,2.46.19,5.06-1.6,6.84l-13.11,13.09c-1.69,1.69-.5,4.58,2.02,4.96,12.95,1.98,31.18,1.84,40.32-7.58,8.62-8.87,10.9-20.81,9.49-32.39Z"/>
    <path class="cls-4" d="M118.2,195.69c-.98-10.79.51-13.81,4.77-18.06l39.57-39.52,28.94-28.9c4.26-4.26,7.36-5.83,18.77-5.44,11.55.39,23.39-2.59,32.08-11.01,9.22-8.94,12.71-21.27,10.53-32.76-.42-2.23-3.32-3.08-4.97-1.43l-15.71,15.69c-1.74,1.74-4.32,2.48-6.78,1.96l-11.79-2.51c-3.14-.67-5.63-2.92-6.5-5.86l-3.24-11.05c-.68-2.31-.02-4.78,1.72-6.52l15.71-15.69c1.65-1.65.61-4.35-1.76-4.64-12.21-1.48-25,2.45-33.94,11.65-8.43,8.66-10.95,20.04-9.96,30.96.98,10.79-.51,13.81-4.77,18.06l-28.94,28.9-39.57,39.52c-4.26,4.26-7.36,5.82-18.77,5.44-11.55-.39-23.39,2.59-32.08,11.02-9.22,8.94-12.71,21.27-10.53,32.76.43,2.23,3.32,3.08,4.97,1.43l12.81-12.79c1.74-1.74,4.32-2.48,6.78-1.96l11.79,2.51c3.14.67,5.63,2.92,6.5,5.86l3.24,11.05c.68,2.31.02,4.78-1.72,6.52l-12.81,12.79c-1.65,1.65-.61,4.35,1.76,4.64,12.21,1.49,25-2.45,33.94-11.65,8.43-8.66,10.95-20.04,9.96-30.96Z"/>
  </g>
  <g id="Layer_9">
    <g>
      <path class="cls-1" d="M107.7,179.75c-.64-.52-1.33-.91-1.74-1.32-.41-.41-1.06-.87-1.95-1.95-5.69-6.81-10.06-13.38-14.32-21.08-1.38-2.47-3.16-6.93-3.22-7.08-.41-1.09,2.47-.35,4.38.16,2.6.69,4.9,2.79,5.61,3.69s3.09,5.88,4.89,8.92c6.51,10.88,7.96,14.28,11.22,14.1,1.43-.08.65-.15,1.06-.89s.42-1.44,0-2.98c-.74-2.7.12-1.19-2.56-5.48s-5.19-9.46-8.67-14.73c-5.69-8.98-11.69-18-14.7-28.16-1.81-6.12-1.2-11.8,1.39-17.49,2.91-6.4,5.8-12.51,10.47-17.46,4.67-4.95,10.11-7.75,13.39-9.83,2.27-1.43,3.65-1.72,6.46-.34.27-.28.9-.32,2.35-2.25.94-1.25,2.59-2.2,3.58-2.55.23-.08,1.1-.29,2.68-.51.23.3.28,1.08.15,2.36-.8,8.14-.61,11.68-.21,21.56.04,1.31.06,2.1.03,2.35-.09.95-.68,4.03-1.18,4.38-.49.34-2.59,1-4.56,1.21-2.23.24-3.61.1-4.17-.45-.56-.55-1.47-3.06-2.29-7.07-1.74-8.49-1.43-11.38-3.77-10.37-1.67.72-1.76,1.35-2.88,4.08-1.39,3.4-1.83,7.17,3.04,18.7,4.68,11.07,9.98,21.43,13.67,32.7,2.44,7.43,4.69,14.76,4.66,23.3-.03,9.65,1.81,17.41-.58,21.02-2.4,3.61-7.85,2.56-11.4.83-2.24-1.09-5.24-3.93-8.05-6.55"/>
      <path class="cls-1" d="M171.21,75.38c6.79,3.08,12.94,5.57,18.5,10.26.94.79,1.67,1.49,2.23,2.04.56.55,2.09,3.32,3.19,4.6.99,1.16,1.54,1.93,1.7,2.26s-.04.46-.58.38c-.5-.07-.75.08-.68.44.07.36.42,1.1,1.03,2.24,9.35,24.34,7.9,43.05-1.93,68.13-.51.91-.81,1.52-.88,1.82-.07.3.18.44.68.36.69-.1.62.29-.14,1.23-1.92,2.38-3.18,3.64-3.54,4s-1.95,1.79-2.72,2.46c-7.34,6.24-11.9,11.76-21.29,11.67-.95.37-1.13-.42-.55-2.42.49-1.71.89-3.04,1.23-3.94.34-.9,1.2-1.79,2.59-2.71,1.56-1.03,2.59-2.36,3.03-3.99.98-20.88,5.34-31.01,5.6-51.76-2.6,18.1-6.24,28.31-11.98,45.63-2.83.34-4.26.49-7.17.72-4.76-17.14-6.12-26.74-10.01-44.62.72,21.68.62,31.12-.67,53.26-.04,1.9.78,3.5,2.2,4.27,1.72.94,2.49,2.64,2.31,5.11-.21,2.82-.97,4.74-2.59,4.84-4.81.3-8.59.06-13.32-.48-1.35-.15-2.32-2.01-2.61-4.68-.21-1.88.3-3.28,1.38-4.22.84-.73,1.39-1.44,1.6-1.96.21-.52.28-1.45.21-2.81-2.09-29.8-2.98-57.43-2.04-88.31.11-2.34.02-4.07-.27-5.25-.28-1.18-.98-2.12-2.04-2.73-1.12-.63.11-4.44.19-5.21.14-1.17-.64-.23-.5-1.37.27-2.08.67-2.51.93-3.03.26-.52.77-.83,1.54-.93,8.11-.98,12.58-.86,20.55.53,8.58,14.76,9.86,24.36,14.66,39.76,1.36-13.34,1.6-21.33.17-35.62Z"/>
    </g>
    <g>
      <path class="cls-3" d="M119.53,79.52c.26-.27,1.1-1.34,2.49-3.2.89-1.21,1.79-1.99,2.74-2.33.22-.08,1.05-.28,2.56-.49.22.29.27,1.04.14,2.28-.76,7.86-.82,12.31-.44,21.85.04,1.27.05,2.03.03,2.27-.08.92-.36,1.54-.83,1.87-.47.33-1.66.58-3.54.78-2.13.23-3.45.09-3.98-.44-.53-.53-1.4-2.95-2.19-6.82-1.67-8.19-2.57-10.74-4.8-9.76-1.59.7-2.97,2.33-4.04,4.97-1.33,3.29-1.61,8.63,3.04,19.76,4.44,10.62,9.59,21.11,13.67,31.83,2.6,6.82,4.1,14.51,4.77,22.35.79,9.28,2.55,17.26.27,20.75-2.29,3.49-7.5,2.47-10.88.8-2.14-1.06-4.45-2.93-7.13-5.46-1.04-.99-1.79-1.61-2.22-1.87-.37-.23-.49-.09-.32.38.32.95-.3.79-1.87-.5-.61-.5-1.1-.96-1.49-1.35-.39-.4-1.02-1.1-1.87-2.14-5.43-6.58-7.94-10.18-12-17.61-1.31-2.39-3.96-7.98-4.02-8.12-.39-1.05,2.36-.34,4.19.15,2.49.67,4.13,4.71,4.81,5.59s1.82,2.79,3.54,5.73c6.22,10.51,11.16,16.26,14.06,17.42,1.07.43,1.79.3,2.19-.42s.4-1.83,0-3.32c-.7-2.61-2.3-6.01-4.85-10.15s-5.58-8.82-8.91-13.9c-5.43-8.67-11.17-17.38-14.03-27.2-1.73-5.91-1.15-11.4,1.32-16.89,2.78-6.18,5.53-12.08,9.99-16.86,4.46-4.78,9.65-7.49,12.78-9.49,2.16-1.38,4.17-1.8,6.85-.46Z"/>
      <path class="cls-3" d="M172.81,78c6.49,2.97,9.5,4.91,14.81,9.44.9.77,1.6,1.44,2.13,1.97.53.53,1.36,1.38,2.4,2.62.95,1.12,1.47,1.86,1.62,2.19s-.03.44-.56.37c-.48-.07-.71.08-.65.43.07.35.4,1.07.99,2.17,10.57,23.87,10.39,45.79-.64,69.45-.49.88-.77,1.46-.84,1.76-.06.29.17.42.65.35.65-.1.59.28-.14,1.19-1.83,2.3-3.04,3.51-3.38,3.86s-.86.86-1.6,1.51c-6.56,5.82-10.43,8.23-18.82,11.51-.91.36-1.07-.4-.52-2.33.47-1.65.85-2.94,1.17-3.8.32-.87,1.15-1.73,2.47-2.62,1.49-1,2.47-2.28,2.89-3.86,5.25-19.68,5.96-39.54,4.61-59.76-2.48,17.48-7.49,34.27-12.98,51-2.7.33-4.07.47-6.85.7-2.87-17.34-7.05-34.45-11.18-51.52.09,21.12.03,42.24-.38,63.36-.04,1.83.67,3.17,2.02,3.92,1.64.91,2.38,2.55,2.21,4.93-.2,2.73-1.07,4.11-2.62,4.21-4.59.29-7,.23-11.52-.29-1.28-.15-2.07-1.47-2.35-4.05-.2-1.82.29-3.17,1.32-4.08.8-.7,1.33-1.39,1.53-1.89.2-.5.27-1.4.2-2.72-1.39-29.45-1.44-58.86-.25-88.32.1-2.26.02-3.93-.25-5.07-.27-1.14-.94-2.05-1.95-2.63-1.07-.61-1.59-1.26-1.51-2,.14-1.13.21-1.68.35-2.79.26-2.01.52-3.23.76-3.73.25-.5.73-.8,1.47-.89,7.75-.95,12.01-.83,19.62.51,5.08,14.59,9.97,29.18,14.29,44.01,3.56-23.44,4.17-26.79,1.47-39.1Z"/>
    </g>
  </g>
</svg>